<?xml version="1.0" encoding="utf-8"?>
<!-- Generator: Adobe Illustrator 24.0.3, SVG Export Plug-In . SVG Version: 6.00 Build 0)  -->
<!DOCTYPE svg PUBLIC "-//W3C//DTD SVG 1.1//EN" "http://www.w3.org/Graphics/SVG/1.1/DTD/svg11.dtd" [
	<!ENTITY ns_extend "http://ns.adobe.com/Extensibility/1.0/">
	<!ENTITY ns_ai "http://ns.adobe.com/AdobeIllustrator/10.0/">
	<!ENTITY ns_graphs "http://ns.adobe.com/Graphs/1.0/">
	<!ENTITY ns_vars "http://ns.adobe.com/Variables/1.0/">
	<!ENTITY ns_imrep "http://ns.adobe.com/ImageReplacement/1.0/">
	<!ENTITY ns_sfw "http://ns.adobe.com/SaveForWeb/1.0/">
	<!ENTITY ns_custom "http://ns.adobe.com/GenericCustomNamespace/1.0/">
	<!ENTITY ns_adobe_xpath "http://ns.adobe.com/XPath/1.0/">
]>
<svg version="1.1" id="Слой_1" xmlns:x="&ns_extend;" xmlns:i="&ns_ai;" xmlns:graph="&ns_graphs;"
	 xmlns="http://www.w3.org/2000/svg" xmlns:xlink="http://www.w3.org/1999/xlink" x="0px" y="0px" viewBox="0 0 30 53"
	 style="enable-background:new 0 0 30 53;" xml:space="preserve">
<style type="text/css">
	.st0{fill:#1EA7E1;}
	.st1{fill:#1D97CB;}
	.st2{fill:#19688A;}
</style>
<metadata>
	<sfw  xmlns="&ns_sfw;">
		<slices></slices>
		<sliceSourceBounds  bottomLeftOrigin="true" height="53" width="30" x="0" y="0"></sliceSourceBounds>
	</sfw>
</metadata>
<path class="st0" d="M10.4,15l-0.2-0.2C8.7,13.4,8,11.5,8,9.5c0-2,0.7-3.9,2.1-5.3C11.6,2.8,13.5,2,15.5,2c2,0,3.9,0.8,5.3,2.2
	C22.2,5.6,23,7.5,23,9.5c0,2-0.8,3.9-2.2,5.3L20.6,15C17.3,16.3,13.6,16.3,10.4,15 M22.8,15h2.5c1.2-0.2,2.4,0.6,2.6,1.9
	c0,0,0,0,0,0.1l0,0v16c0,1.7-0.8,2.6-2.5,2.7H4.7c-1.3,0.2-2.5-0.7-2.7-2c0-0.2,0-0.5,0-0.7V17l0,0c0.2-1.3,1.3-2.1,2.6-2
	c0,0,0,0,0,0h3.3C12.9,19.1,17.9,19.1,22.8,15 M22.5,37.7V50c-0.7,0.7-1.7,1.1-2.6,1h-9.6c-1,0.1-1.9-0.3-2.7-1V37.7H22.5"/>
<path class="st1" d="M20.6,15h2.2c-4.9,4.1-9.9,4.1-14.9,0h2.4C13.6,16.3,17.3,16.3,20.6,15 M22.5,35.7v2H7.6v-2H22.5"/>
<path class="st2" d="M22.5,35.7h3.1c1.6-0.1,2.5-1,2.5-2.7V17h0c-0.2-1.3-1.3-2.1-2.6-2c0,0,0,0,0,0h-4.8l0.2-0.2
	c1.4-1.4,2.2-3.3,2.2-5.3c0-2-0.8-3.9-2.2-5.3C19.4,2.8,17.5,2,15.5,2c-2,0-3.9,0.8-5.3,2.2C8.7,5.6,8,7.5,8,9.5
	c0,2,0.7,3.9,2.1,5.3l0.2,0.2H4.7c-1.3-0.2-2.4,0.7-2.6,1.9c0,0,0,0,0,0h0v16c-0.2,1.3,0.7,2.5,2,2.7c0.2,0,0.5,0,0.7,0h2.9V50
	c0.7,0.7,1.7,1.1,2.7,1h9.6c1,0.1,1.9-0.3,2.6-1V35.7 M6.7,13C6.2,11.9,6,10.7,6,9.5C5.9,7,6.9,4.6,8.8,2.8C10.5,1,13,0,15.5,0
	c2.5,0,5,1,6.8,2.8h0C24,4.5,25.1,7,25,9.5c0,1.2-0.2,2.4-0.6,3.5h1c2.5,0,4,1,4.5,3.1L30,17v16c0,3.1-1.4,4.6-4.4,4.7h-1.2V50
	c0,0.5-0.2,1-0.5,1.4c-1.1,1.1-2.6,1.7-4.1,1.7h-9.6c-1.5,0.1-3-0.5-4.1-1.7C5.7,51,5.5,50.5,5.6,50V37.7H4.7C1.6,37.7,0,36.1,0,33
	V17l0.2-0.8c0.5-2.1,2-3.2,4.4-3.1L6.7,13"/>
</svg>
